<?xml version="1.0" standalone="no"?>
<!DOCTYPE svg PUBLIC "-//W3C//DTD SVG 1.1//EN" "http://www.w3.org/Graphics/SVG/1.1/DTD/svg11.dtd" >
<svg xmlns="http://www.w3.org/2000/svg">
<metadata></metadata>
<defs>
<font id="alright_sansblack_italic" horiz-adv-x="1636" >
<font-face units-per-em="2048" ascent="1556" descent="-492" />
<missing-glyph horiz-adv-x="468" />
<glyph unicode="&#xfb01;" horiz-adv-x="1398" d="M70 848l45 250h157l7 41q36 220 183 324t406 104q291 0 523 -144l-156 -223q-95 49 -173.5 70.5t-168.5 21.5q-108 0 -163.5 -41t-70.5 -139l-2 -16h256l-45 -248h-254l-147 -848h-387l149 848h-159zM823 0l195 1096h385l-195 -1096h-385z" />
<glyph unicode="&#xfb02;" horiz-adv-x="1417" d="M70 848l45 250h157l7 37q36 214 182.5 324t427.5 110q250 0 389 -108t139 -296q0 -83 -12 -159l-180 -1006h-385l188 1053q10 62 10 102q0 137 -172 137q-93 0 -142.5 -42.5t-64.5 -137.5l-2 -16h256l-45 -248h-254l-149 -848h-385l149 848h-159z" />
<glyph unicode="&#xfb03;" horiz-adv-x="2140" d="M70 848l45 250h157l7 39q39 221 171 317t365 96q198 0 377 -96q142 113 416 113q288 0 524 -144l-158 -223q-93 48 -172 70t-168 22q-108 0 -163 -42t-70 -140l-2 -14h256l-45 -248h-256l-146 -848h-387l148 848h-355l-149 -848h-385l149 848h-159zM657 1096h355l8 41 q7 48 29 112q-98 37 -195 37q-91 0 -136.5 -39.5t-58.5 -136.5zM1565 0l194 1096h383l-192 -1096h-385z" />
<glyph unicode="&#xfb04;" horiz-adv-x="2158" d="M70 848l45 250h157l7 39q39 221 171 317t365 96q198 0 377 -96q148 115 438 115q251 0 390 -108t139 -296q0 -83 -15 -159l-176 -1006h-387l186 1053q13 80 13 102q0 137 -172 137q-181 0 -207 -180l-4 -16h258l-45 -248h-256l-148 -848h-385l148 848h-355l-149 -848 h-385l149 848h-159zM657 1096h355l6 39q7 48 29 116q-96 35 -193 35q-91 0 -136.5 -39.5t-58.5 -136.5z" />
<glyph horiz-adv-x="2048" />
<glyph horiz-adv-x="2048" />
<glyph unicode="&#xd;" horiz-adv-x="2048" />
<glyph unicode=" "  horiz-adv-x="468" />
<glyph unicode="&#x09;" horiz-adv-x="468" />
<glyph unicode="&#xa0;" horiz-adv-x="468" />
<glyph unicode="!" horiz-adv-x="585" d="M10 0l56 309h360l-53 -309h-363zM178 463l27 674l55 297h381l-53 -297l-217 -674h-193z" />
<glyph unicode="&#x22;" horiz-adv-x="1007" d="M158 993l80 441h374l-213 -486zM662 993l79 441h375l-213 -486z" />
<glyph unicode="#" horiz-adv-x="1370" d="M-4 242l45 247h229l66 199h-203l45 250h240l82 242h295l-82 -242h194l82 242h289l-82 -242h197l-45 -250h-234l-65 -199h206l-45 -247h-243l-80 -242h-295l80 242h-195l-80 -242h-291l80 242h-190zM561 489h195l67 199h-194z" />
<glyph unicode="$" horiz-adv-x="1169" d="M-10 135l192 234q151 -91 314 -109l34 195q-158 40 -224 71q-181 86 -189 265v16q0 177 140.5 283t377.5 114l31 164h153l-28 -174q181 -25 339 -115l-184 -241q-116 60 -231 82l-35 -189q38 -9 61 -15t60.5 -17.5t61.5 -22t56.5 -27.5t53.5 -34.5t44 -42.5t36 -53 t21.5 -63.5t8.5 -76.5q0 -179 -132 -289t-378 -117l-43 -245h-153l43 252q-129 15 -241.5 56.5t-188.5 98.5zM481 840q0 -29 26 -48t77 -36l30 172q-62 -3 -97.5 -27.5t-35.5 -60.5zM598 256q125 9 125 88q0 29 -24.5 48t-71.5 36z" />
<glyph unicode="%" horiz-adv-x="1775" d="M80 827q0 160 118.5 264.5t299.5 104.5q144 0 229.5 -80t85.5 -211q0 -161 -121 -265.5t-303 -104.5q-145 0 -227 78.5t-82 213.5zM268 0l1014 1178h250l-1012 -1178h-252zM317 840q0 -59 26 -92t77 -33q68 0 110.5 51.5t42.5 124.5q0 123 -100 123q-69 0 -112.5 -51 t-43.5 -123zM991 272q0 160 118 265.5t298 105.5q145 0 230 -80t85 -213q0 -161 -120.5 -265.5t-303.5 -104.5q-144 0 -225.5 78.5t-81.5 213.5zM1227 287q0 -125 102 -125q70 0 113 51t43 123q0 125 -101 125q-69 0 -113 -51.5t-44 -122.5z" />
<glyph unicode="&#x26;" horiz-adv-x="1503" d="M41 377q0 149 93 266.5t247 181.5q-74 128 -74 252q0 113 62.5 201t163 134t219.5 46q269 0 446 -209l-242 -186q-107 111 -192 111q-52 0 -81.5 -30.5t-29.5 -74.5q0 -72 82 -172q134 -159 289 -311q54 104 74 223h340q-41 -254 -172 -447q54 -49 182 -155l-234 -230 q-83 68 -176 152q-224 -156 -510 -156q-220 0 -353.5 114.5t-133.5 289.5zM387 426q0 -73 49.5 -113.5t141.5 -40.5q122 0 231 70q-151 147 -270 281q-67 -34 -109.5 -84.5t-42.5 -112.5z" />
<glyph unicode="'" horiz-adv-x="507" d="M158 993l80 441h374l-213 -486z" />
<glyph unicode="(" horiz-adv-x="851" d="M109 391q0 333 131.5 639t375.5 514h418q-255 -224 -407 -534t-152 -650q0 -382 227 -770h-372q-97 161 -159 367t-62 434z" />
<glyph unicode=")" horiz-adv-x="851" d="M-166 -410q256 227 410.5 538t154.5 650q0 384 -227 766h375q97 -163 159 -366.5t62 -429.5q0 -333 -135 -640.5t-381 -517.5h-418z" />
<glyph unicode="*" horiz-adv-x="841" d="M176 1020l2 233l219 -30l4 4l-86 200l207 60l45 -213l6 -2l168 131l127 -180l-184 -93v-6l176 -114l-139 -172l-154 153l-10 -2l-65 -217l-197 70l98 200l-4 5z" />
<glyph unicode="+" horiz-adv-x="1230" d="M47 410l57 307h379l74 405h342l-72 -405h379l-53 -307h-381l-74 -410h-344l74 410h-381z" />
<glyph unicode="," horiz-adv-x="542" d="M-49 -201q86 24 138.5 77.5t66.5 123.5h-160l65 367h371l-51 -269q-32 -185 -124.5 -289t-262.5 -147z" />
<glyph unicode="-" horiz-adv-x="768" d="M47 406l55 317h637l-55 -317h-637z" />
<glyph unicode="." horiz-adv-x="540" d="M-4 0l65 367h371l-67 -367h-369z" />
<glyph unicode="/" horiz-adv-x="1175" d="M-193 -410q32 51 326.5 522.5t569 910.5t327.5 523h359q-60 -95 -612 -978t-613 -978h-357z" />
<glyph unicode="0" horiz-adv-x="1376" d="M68 512q0 206 97.5 365.5t259.5 243t359 83.5q115 0 214.5 -36.5t173.5 -104t116.5 -170t42.5 -227.5q0 -155 -57 -286.5t-154.5 -219.5t-228.5 -137.5t-279 -49.5q-153 0 -275.5 62.5t-195.5 186.5t-73 290zM473 514q0 -109 44.5 -170t129.5 -61q118 0 198.5 114 t80.5 265q0 111 -44.5 173t-129.5 62q-77 0 -142 -55t-101 -143t-36 -185z" />
<glyph unicode="1" horiz-adv-x="925" d="M84 1014l502 170h293l-209 -1184h-402l142 803l-211 -72z" />
<glyph unicode="2" horiz-adv-x="1236" d="M18 0l9 86q10 101 44.5 184.5t84.5 141t112 103t128 75.5t131.5 54.5t123.5 43.5t102.5 37.5t70.5 42.5t26 53q0 99 -160 99q-188 0 -405 -138l-146 254q276 164 586 164q237 0 370.5 -98t133.5 -271q0 -84 -38 -150t-99.5 -108t-137 -74t-154.5 -55t-147.5 -44t-120 -49 t-67.5 -62h649l-53 -289h-1043z" />
<glyph unicode="3" horiz-adv-x="1243" d="M-66 -133l170 246q82 -48 179 -78.5t184 -30.5q123 0 197.5 53.5t74.5 139.5q0 73 -55.5 104t-163.5 31h-215l47 272h191q122 0 187 43.5t65 126.5q0 63 -44 97t-122 34q-150 0 -346 -102l-127 266q246 131 542 131q227 0 365.5 -107.5t138.5 -279.5q0 -124 -64.5 -204.5 t-185.5 -133.5q89 -49 136 -126.5t47 -170.5q0 -115 -53 -205t-145.5 -146t-211.5 -85t-256 -29q-149 0 -289 41.5t-246 112.5z" />
<glyph unicode="4" horiz-adv-x="1378" d="M16 279l893 901h379l-160 -901h152l-49 -279h-152l-43 -260h-377l46 260h-607zM377 279h379l84 473z" />
<glyph unicode="5" horiz-adv-x="1232" d="M-59 -127l182 256q168 -106 340 -106q114 0 188 61.5t74 155.5q0 73 -41.5 112t-118.5 39q-103 0 -229 -55l-201 133l144 711h895l-44 -277h-546l-58 -278q108 41 213 41q161 0 274 -106t113 -286q0 -131 -53 -238.5t-143 -176.5t-206 -106.5t-245 -37.5q-292 0 -538 158 z" />
<glyph unicode="6" horiz-adv-x="1288" d="M80 582q0 202 60.5 369t166 277.5t246 171t301.5 60.5q248 0 434 -131l-176 -231q-50 32 -118 54t-134 22q-136 0 -231 -97.5t-121 -240.5q59 45 147.5 73.5t173.5 28.5q187 0 295.5 -106t108.5 -291q0 -118 -44.5 -222t-124 -180.5t-196 -121t-254.5 -44.5 q-130 0 -232.5 45.5t-168 127t-99.5 192.5t-34 244zM471 508q0 -65 15 -118.5t54.5 -92.5t98.5 -39q98 0 153.5 79.5t55.5 186.5q0 74 -36 119t-105 45q-62 0 -124 -28.5t-106 -69.5q-6 -27 -6 -82z" />
<glyph unicode="7" horiz-adv-x="1153" d="M63 -258l701 1132h-631l53 306h1024l-51 -279l-663 -1159h-433z" />
<glyph unicode="8" horiz-adv-x="1380" d="M43 350q0 142 97.5 247.5t267.5 164.5q-193 97 -193 282q0 192 168 304t444 112q147 0 266 -44t190 -127.5t71 -192.5q0 -128 -83 -221t-216 -140q117 -53 175 -129.5t58 -191.5q0 -138 -87.5 -239t-236.5 -151.5t-339 -50.5q-269 0 -425.5 100.5t-156.5 276.5zM453 383 q0 -62 51 -101.5t141 -39.5q104 0 174 50t70 130q0 65 -49.5 114t-134.5 68q-103 -19 -177.5 -82.5t-74.5 -138.5zM606 1026q0 -55 39.5 -93t106.5 -52q90 13 147 66t57 120q0 55 -42 88t-113 33q-84 0 -139.5 -46.5t-55.5 -115.5z" />
<glyph unicode="9" horiz-adv-x="1294" d="M8 -152l180 230q49 -34 116.5 -57t137.5 -23q135 0 230 98t121 240q-61 -44 -149.5 -73.5t-170.5 -29.5q-188 0 -295.5 106t-107.5 292q0 118 43.5 221.5t121 180t192.5 121t251 44.5q174 0 298 -79t184.5 -214.5t60.5 -314.5q0 -202 -58.5 -369t-161 -278t-241.5 -171.5 t-299 -60.5q-119 0 -241 35t-212 102zM453 649q0 -75 35.5 -119.5t105.5 -44.5q62 0 123.5 28t105.5 69q6 30 6 84q0 63 -15 116.5t-54 92t-96 38.5q-67 0 -116.5 -39.5t-72 -98t-22.5 -126.5z" />
<glyph unicode=":" horiz-adv-x="540" d="M-4 0l65 367h371l-67 -367h-369zM131 760l66 366h370l-67 -366h-369z" />
<glyph unicode=";" horiz-adv-x="540" d="M-49 -201q86 24 138.5 77.5t66.5 123.5h-160l65 367h371l-51 -269q-32 -185 -124.5 -289t-262.5 -147zM131 760l66 366h370l-67 -366h-369z" />
<glyph unicode="&#x3c;" horiz-adv-x="1150" d="M53 393l62 344l1065 385l-70 -391l-573 -182l510 -180l-66 -369z" />
<glyph unicode="=" horiz-adv-x="1230" d="M2 152l57 307h1102l-53 -307h-1106zM92 666l58 307h1101l-53 -307h-1106z" />
<glyph unicode="&#x3e;" horiz-adv-x="1150" d="M-4 0l70 391l575 184l-510 181l64 366l927 -393l-59 -342z" />
<glyph unicode="?" horiz-adv-x="1167" d="M158 1233q250 227 569 227q90 0 173 -21.5t154.5 -65t114.5 -118.5t43 -172q0 -73 -27.5 -135t-72.5 -105t-99 -79.5t-110.5 -66.5t-105 -58t-83.5 -61.5t-44 -69.5l-13 -45h-278q-4 59 6 108q10 59 40 110t69 86.5t84 66.5t87.5 56.5t77.5 50.5t56.5 55t21.5 63 q0 49 -40 74.5t-97 25.5q-156 0 -326 -141zM258 0l53 309h361l-54 -309h-360z" />
<glyph unicode="@" horiz-adv-x="1634" d="M119 586q0 151 58.5 288.5t157.5 237t236.5 158.5t288.5 59q193 0 354.5 -90t255 -246t93.5 -342q0 -118 -40.5 -213.5t-104.5 -151.5t-135.5 -85t-141.5 -29q-185 0 -246 133q-97 -104 -219 -104q-98 0 -167 77.5t-69 204.5q0 83 24 167.5t68.5 157.5t118.5 119t164 46 q122 0 182 -103l41 82h222l-138 -483q-23 -82 -2.5 -120t78.5 -38q39 0 80.5 22t78 62.5t60 107.5t23.5 148q0 153 -77 280.5t-209.5 201t-291.5 73.5q-167 0 -309.5 -83t-225.5 -226t-83 -311q0 -125 49 -239.5t132 -197t197.5 -131.5t239.5 -49q188 0 348 109l70 -103 q-189 -131 -420 -131q-202 0 -372.5 99.5t-269.5 270t-99 372.5zM692 498q0 -107 78 -107q41 0 73.5 30.5t47.5 86.5l61 227q-34 43 -90 43q-50 0 -90.5 -46.5t-60 -110t-19.5 -123.5z" />
<glyph unicode="A" horiz-adv-x="1437" d="M-84 0l737 1434h449l229 -1434h-405l-25 213h-440l-96 -213h-449zM594 506h272l-53 469h-4z" />
<glyph unicode="B" horiz-adv-x="1363" d="M20 0l252 1434h629q214 0 336.5 -99.5t122.5 -261.5q0 -126 -67.5 -209t-202.5 -135q102 -37 155 -107.5t53 -185.5q0 -212 -158.5 -324t-455.5 -112h-664zM467 307h242q94 0 151.5 45t57.5 127q0 60 -42 91.5t-114 31.5h-242zM563 848h199q88 0 140 45t52 123 q0 110 -145 110h-197z" />
<glyph unicode="C" horiz-adv-x="1419" d="M86 639q0 166 61.5 316.5t169.5 261.5t264 177t334 66q169 0 307 -57t238 -160l-231 -235q-134 120 -311 120q-113 0 -210.5 -62.5t-155.5 -172t-58 -238.5q0 -166 84.5 -258t220.5 -92q174 0 329 144l209 -259q-239 -217 -569 -217q-144 0 -267.5 44t-216 126.5 t-145.5 210t-53 285.5z" />
<glyph unicode="D" horiz-adv-x="1476" d="M18 0l254 1434h490q324 0 508 -157t184 -464q0 -177 -57 -323.5t-169.5 -257t-291.5 -171.5t-410 -61h-508zM475 313h139q131 0 230.5 69t149.5 180t50 245q0 313 -286 313h-140z" />
<glyph unicode="E" horiz-adv-x="1269" d="M18 0l254 1434h1063l-61 -340h-660l-41 -220h584l-53 -294h-582l-43 -240h670l-62 -340h-1069z" />
<glyph unicode="F" horiz-adv-x="1245" d="M18 0l254 1434h1047l-62 -340h-643l-45 -246h557l-59 -318h-553l-94 -530h-402z" />
<glyph unicode="G" horiz-adv-x="1482" d="M86 625q0 172 59.5 324t167 265.5t269 179.5t354.5 66q163 0 303.5 -59.5t241.5 -153.5l-236 -235q-140 116 -317 116q-185 0 -309.5 -137.5t-124.5 -343.5q0 -156 83 -249t218 -93q113 0 198 45l37 219h-268l47 252h623l-123 -684q-229 -164 -545 -164q-151 0 -278.5 49 t-215 135.5t-136 207t-48.5 260.5z" />
<glyph unicode="H" horiz-adv-x="1445" d="M18 0l254 1434h402l-94 -541h417l97 541h401l-252 -1434h-403l100 559h-418l-100 -559h-404z" />
<glyph unicode="I" horiz-adv-x="626" d="M18 0l254 1434h402l-252 -1434h-404z" />
<glyph unicode="J" horiz-adv-x="1128" d="M-16 272l295 174q42 -66 82.5 -99.5t95.5 -33.5q124 0 149 158l170 963h402l-170 -965q-92 -496 -557 -496q-150 0 -274 81t-193 218z" />
<glyph unicode="K" horiz-adv-x="1419" d="M18 0l254 1434h402l-99 -562l531 562h459l-523 -531l281 -903h-405l-177 598l-262 -266l-57 -332h-404z" />
<glyph unicode="L" horiz-adv-x="1193" d="M18 0l254 1434h402l-193 -1096h625l-62 -338h-1026z" />
<glyph unicode="M" horiz-adv-x="1742" d="M18 0l254 1434h371l275 -531l446 531h428l-254 -1434h-377l156 881l-477 -537l-287 537l-154 -881h-381z" />
<glyph unicode="N" horiz-adv-x="1486" d="M18 0l254 1434h324l420 -824l143 824h377l-254 -1434h-332l-411 825l-142 -825h-379z" />
<glyph unicode="O" d="M96 643q0 128 35.5 248.5t106 223.5t169.5 180t233.5 121t289.5 44q190 0 342.5 -78t244 -232t91.5 -359q0 -128 -35 -248.5t-106 -223.5t-169.5 -180.5t-233.5 -121.5t-290 -44q-112 0 -214 29t-186.5 86t-146.5 136.5t-96.5 187t-34.5 231.5zM506 645q0 -166 76 -254 t215 -88q112 0 205 68t144.5 179t51.5 238q0 165 -76 253.5t-213 88.5q-113 0 -206.5 -68t-145 -179t-51.5 -238z" />
<glyph unicode="P" horiz-adv-x="1378" d="M18 0l254 1434h590q257 0 395 -120t138 -313q0 -68 -14 -129t-44.5 -120t-82.5 -106t-123.5 -83t-173.5 -56t-226 -20h-223l-86 -487h-404zM561 786h207q98 0 157.5 53.5t59.5 143.5q0 72 -41.5 107.5t-116.5 35.5h-206z" />
<glyph unicode="Q" d="M96 643q0 128 35.5 248.5t106 223.5t169.5 180t233.5 121t289.5 44q190 0 342.5 -78t244 -232t91.5 -359q0 -163 -59 -313.5t-169 -264.5l113 -123l-201 -158l-112 131q-182 -90 -406 -90q-112 0 -214 29t-186.5 86t-146.5 136.5t-96.5 187t-34.5 231.5zM506 645 q0 -166 76 -254t215 -88q84 0 157 39l-178 199l178 151l164 -192q80 129 80 288q0 165 -76 253.5t-213 88.5q-113 0 -206.5 -68t-145 -179t-51.5 -238z" />
<glyph unicode="R" horiz-adv-x="1413" d="M18 0l254 1434h611q249 0 390.5 -118.5t141.5 -316.5q0 -66 -15 -125.5t-49 -120.5t-99 -111.5t-156 -82.5l133 -559h-381l-98 508h-17h-221l-90 -508h-404zM561 786h225q96 0 157 54.5t61 144.5q0 69 -41.5 105t-116.5 36h-225z" />
<glyph unicode="S" horiz-adv-x="1273" d="M2 170l215 279q196 -132 381 -132q78 0 125 31.5t47 79.5q0 17 -5.5 30.5t-19 25.5t-26.5 20.5t-38.5 18t-42.5 15.5t-52 17t-54 18q-44 14 -76.5 26.5t-73.5 32.5t-70.5 41.5t-60 53t-49 67.5t-30.5 84.5t-12 104.5q0 206 157.5 341.5t427.5 135.5q142 0 281.5 -41 t251.5 -108l-180 -291q-177 98 -355 98q-73 0 -116 -30.5t-43 -77.5q0 -25 13 -44t42.5 -34t57 -25t77.5 -26q7 -2 11.5 -3.5t11 -3.5t12.5 -4q50 -16 77 -26t74 -30.5t74 -39.5t61 -51t52.5 -68t31.5 -86.5t13 -109.5q0 -104 -38 -191t-112 -153.5t-192.5 -104 t-269.5 -37.5q-157 0 -315.5 57.5t-262.5 139.5z" />
<glyph unicode="T" horiz-adv-x="1345" d="M141 1085l60 349h1259l-59 -349h-420l-190 -1085h-402l193 1085h-441z" />
<glyph unicode="U" horiz-adv-x="1460" d="M106 440q0 85 19 193l143 801h404l-152 -842q-12 -56 -12 -111q0 -83 49.5 -128.5t136.5 -45.5q214 0 267 289l147 838h401l-153 -879q-102 -582 -721 -582q-240 0 -384.5 125t-144.5 342z" />
<glyph unicode="V" horiz-adv-x="1431" d="M168 1434h412l108 -961h4l443 961h446l-737 -1434h-443z" />
<glyph unicode="W" horiz-adv-x="2205" d="M178 1434h397l95 -852h4l385 852h358l90 -852h4l398 852h430l-692 -1434h-402l-92 860h-4l-391 -860h-393z" />
<glyph unicode="X" horiz-adv-x="1466" d="M-68 0l586 733l-321 701h452l162 -392l291 392h502l-570 -709l320 -725h-443l-168 420l-311 -420h-500z" />
<glyph unicode="Y" horiz-adv-x="1441" d="M160 1434h430l184 -461h4l348 461h476l-672 -863l-101 -571h-405l100 571z" />
<glyph unicode="Z" horiz-adv-x="1306" d="M-16 0l53 291l731 790h-596l61 353h1149l-49 -293l-729 -789h615l-62 -352h-1173z" />
<glyph unicode="[" horiz-adv-x="927" d="M-39 -410l344 1956h709l-45 -258h-322l-252 -1435h320l-49 -263h-705z" />
<glyph unicode="\" horiz-adv-x="1175" d="M162 1546h336l555 -1956h-338z" />
<glyph unicode="]" horiz-adv-x="927" d="M-82 -410l45 263h318l254 1435h-318l45 258h705l-344 -1956h-705z" />
<glyph unicode="^" horiz-adv-x="1257" d="M266 1151l365 389h379l225 -389h-324l-108 156l-170 -156h-367z" />
<glyph unicode="_" horiz-adv-x="1110" d="M-156 -346l58 319h1112l-58 -319h-1112z" />
<glyph unicode="`" horiz-adv-x="1097" d="M487 1466l269 156l151 -387h-221z" />
<glyph unicode="a" horiz-adv-x="1286" d="M61 426q0 197 69 361t192 259t274 95q193 0 299 -125l39 104h346l-139 -780q-4 -28 -4 -43q0 -49 67 -49l-43 -254q-57 -7 -107 -7q-222 0 -276 148q-133 -158 -342 -158q-161 0 -268 118t-107 331zM449 465q0 -102 36.5 -151.5t94.5 -49.5q54 0 103 38t87 106l70 401 q-74 53 -150 53q-103 0 -172 -116.5t-69 -280.5z" />
<glyph unicode="b" horiz-adv-x="1269" d="M6 0l275 1546h385l-99 -540q122 135 301 135q160 0 258.5 -119t98.5 -332q0 -316 -149.5 -513t-379.5 -197q-180 0 -305 135l-37 -115h-348zM446 315q67 -57 150 -57q70 0 126.5 56.5t87 147.5t30.5 197q0 100 -37 149.5t-94 49.5q-52 0 -102 -37.5t-87 -105.5z" />
<glyph unicode="c" horiz-adv-x="1081" d="M49 489q0 184 86 335t234 236t327 85q125 0 234.5 -42.5t179.5 -109.5l-211 -223q-84 74 -192 74q-111 0 -188 -99.5t-77 -248.5q0 -100 52 -158.5t131 -58.5q109 0 200 77l185 -237q-185 -146 -441 -146q-82 0 -157 19.5t-141.5 61.5t-115.5 102t-77.5 145.5 t-28.5 187.5z" />
<glyph unicode="d" horiz-adv-x="1271" d="M61 430q0 195 70 358.5t192 258t267 94.5q184 0 287 -109l92 514h385l-273 -1546h-321l-2 135q-131 -155 -330 -155q-155 0 -261 120t-106 330zM446 467q0 -104 38 -155.5t96 -51.5q52 0 102 40.5t86 107.5l70 401q-70 53 -148 53q-104 0 -174 -117t-70 -278z" />
<glyph unicode="e" horiz-adv-x="1212" d="M66 469q0 149 55 277t148.5 214.5t218.5 135.5t264 49q197 0 319.5 -92.5t122.5 -241.5q0 -162 -166.5 -253t-439.5 -91h-133q1 -101 46.5 -144.5t137.5 -43.5q140 0 289 90l131 -252q-227 -144 -469 -144q-234 0 -379 134.5t-145 361.5zM481 662h80q145 0 207.5 36.5 t62.5 92.5q0 40 -29.5 66t-80.5 26q-81 0 -145 -60t-95 -161z" />
<glyph unicode="f" horiz-adv-x="862" d="M70 848l45 250h157l7 41q39 224 164.5 327t342.5 103q172 0 318 -78l-125 -229q-72 30 -145 30q-70 0 -111.5 -36t-56.5 -117l-9 -43h256l-45 -248h-254l-149 -848h-385l149 848h-159z" />
<glyph unicode="g" horiz-adv-x="1273" d="M16 -301l150 264q165 -94 303 -94q104 0 162.5 43t73.5 137l16 88q-117 -108 -295 -108q-53 0 -103.5 14.5t-97.5 47.5t-82 81.5t-56 121.5t-21 163q0 186 68.5 342.5t192 249t273.5 92.5q182 0 297 -115l31 94h350l-186 -1059q-44 -259 -193 -375t-438 -116 q-121 0 -242 37t-203 92zM451 487q0 -99 36.5 -147.5t94.5 -48.5q53 0 103 38.5t87 106.5l68 383q-66 51 -148 51q-102 0 -171.5 -113t-69.5 -270z" />
<glyph unicode="h" horiz-adv-x="1249" d="M8 0l275 1546h385l-99 -555q158 154 332 154q145 0 224 -78t79 -213q0 -76 -20 -186l-119 -668h-385l121 688q10 48 10 94q0 78 -78 78q-105 0 -217 -168l-123 -692h-385z" />
<glyph unicode="i" horiz-adv-x="583" d="M8 0l195 1098h385l-195 -1098h-385zM229 1245l52 297h385l-50 -297h-387z" />
<glyph unicode="j" horiz-adv-x="589" d="M-360 -344l131 250q65 -37 123 -37q55 0 83 40.5t46 135.5l184 1053h387l-193 -1078q-42 -245 -154 -347.5t-327 -102.5q-82 0 -156 24.5t-124 61.5zM231 1245l52 297h387l-52 -297h-387z" />
<glyph unicode="k" horiz-adv-x="1241" d="M8 0l273 1546h385l-150 -850l420 424h416l-432 -418l200 -702h-383l-110 420l-193 -189l-41 -231h-385z" />
<glyph unicode="l" horiz-adv-x="583" d="M8 0l273 1546h385l-273 -1546h-385z" />
<glyph unicode="m" horiz-adv-x="1859" d="M6 0l197 1120h323l4 -149q72 79 165 126.5t196 47.5q98 0 170.5 -44.5t97.5 -142.5q176 187 377 187q125 0 200.5 -72t75.5 -194q0 -78 -24 -226l-117 -653h-368l120 688q11 69 11 92q0 78 -74 78q-101 0 -209 -149v-4l-127 -705h-367l123 688q11 69 11 90q0 80 -74 80 q-104 0 -209 -153l-125 -705h-377z" />
<glyph unicode="n" horiz-adv-x="1247" d="M6 0l199 1120h323l9 -145q160 170 364 170q141 0 220 -78.5t79 -210.5q0 -77 -20 -190l-119 -666h-385l121 688q12 62 12 94q0 78 -76 78q-107 0 -219 -168l-123 -692h-385z" />
<glyph unicode="o" horiz-adv-x="1275" d="M63 487q0 292 182 475t472 183q147 0 263 -59.5t183.5 -177.5t67.5 -277q0 -291 -181 -474.5t-472 -183.5q-224 0 -369.5 138.5t-145.5 375.5zM453 477q0 -227 149 -227q66 0 122 57t87 147.5t31 188.5q0 113 -38.5 170t-111.5 57q-65 0 -121 -57t-87 -147.5t-31 -188.5z " />
<glyph unicode="p" horiz-adv-x="1269" d="M-68 -410l273 1530h338l6 -129q140 150 323 150q72 0 134 -27.5t112 -81.5t78.5 -143.5t28.5 -204.5q0 -311 -151 -507.5t-378 -196.5q-171 0 -286 122l-93 -512h-385zM446 315q63 -57 150 -57q70 0 126.5 56.5t87 147.5t30.5 197q0 99 -37 149t-96 50 q-51 0 -100.5 -38.5t-88.5 -104.5z" />
<glyph unicode="q" horiz-adv-x="1267" d="M61 438q0 198 70 359.5t192.5 252.5t272.5 91q96 0 173 -33.5t126 -91.5l39 104h344l-268 -1530h-385l90 514q-109 -124 -291 -124q-155 0 -259 120.5t-104 337.5zM449 465q0 -102 36 -153.5t93 -51.5q53 0 103 40.5t89 107.5l70 401q-74 53 -148 53 q-104 0 -173.5 -116.5t-69.5 -280.5z" />
<glyph unicode="r" horiz-adv-x="925" d="M4 0l201 1120h321l11 -168q133 203 340 203q87 0 139 -22l-105 -338q-61 22 -135 22q-81 0 -149.5 -62t-132.5 -171l-105 -584h-385z" />
<glyph unicode="s" horiz-adv-x="1044" d="M-23 121l162 237q174 -102 318 -102q61 0 97 21.5t36 56.5q0 14 -5 26t-19.5 22t-25.5 16.5t-38 15.5t-40 12.5t-48 13.5q-314 85 -314 328q0 119 69 206.5t178.5 129t242.5 41.5q241 0 448 -127l-161 -230q-69 38 -142.5 59t-130.5 21q-52 0 -85.5 -22.5t-33.5 -57.5 q0 -17 10.5 -31t24.5 -23.5t42.5 -19t48.5 -14.5t59 -14q70 -17 120.5 -40t92.5 -59t63 -88.5t21 -121.5q0 -128 -70.5 -221t-186 -138t-259.5 -45q-133 0 -256 39.5t-218 108.5z" />
<glyph unicode="t" horiz-adv-x="927" d="M80 862l47 258h160l45 254h385l-45 -254h295l-47 -258h-295l-80 -450q-8 -36 -8 -64q0 -69 69 -69t139 51l111 -244q-173 -113 -385 -113q-143 0 -234.5 80.5t-91.5 212.5q0 41 19 170l78 426h-162z" />
<glyph unicode="u" horiz-adv-x="1241" d="M53 266q0 78 17 185l118 669h385l-127 -702q-8 -54 -8 -88q0 -78 76 -78q109 0 225 186l119 682h387l-198 -1120h-312l-10 147q-164 -174 -367 -174q-147 0 -226 81.5t-79 211.5z" />
<glyph unicode="v" horiz-adv-x="1120" d="M119 1120h348l63 -704h5l311 704h368l-548 -1120h-400z" />
<glyph unicode="w" horiz-adv-x="1712" d="M117 1120h352l61 -624h5l268 624h284l56 -624h4l278 624h375l-540 -1120h-326l-66 584h-4l-264 -584h-340z" />
<glyph unicode="x" horiz-adv-x="1126" d="M-76 0l432 571l-227 549h358l111 -291l213 291h408l-431 -555l230 -565h-348l-123 309l-230 -309h-393z" />
<glyph unicode="y" horiz-adv-x="1171" d="M-137 -358l133 266q76 -39 137 -39q58 0 94.5 23.5t63.5 84.5l22 41l-200 1102h360l88 -653h4l312 653h383l-562 -1089q-74 -141 -134.5 -228.5t-127 -140.5t-135 -72.5t-162.5 -19.5q-75 0 -150 20t-126 52z" />
<glyph unicode="z" horiz-adv-x="1073" d="M-23 0l46 246l563 596h-445l52 278h899l-43 -254l-551 -587h465l-45 -279h-941z" />
<glyph unicode="{" horiz-adv-x="1021" d="M31 399l59 336h105q76 0 109 33.5t52 132.5l47 268q40 210 148.5 293.5t345.5 83.5h213l-47 -266h-139q-62 0 -92.5 -25.5t-40.5 -87.5l-52 -297q-24 -132 -85 -206t-201 -101v-2q184 -62 184 -223q0 -40 -10 -105l-49 -266q-3 -15 -3 -39q0 -38 23.5 -54.5t71.5 -16.5 h141l-49 -267h-162q-217 0 -316.5 74.5t-99.5 222.5q0 37 11 109l51 270q4 28 4 49q0 46 -27 65t-88 19h-104z" />
<glyph unicode="|" horiz-adv-x="673" d="M0 -410l344 1956h350l-346 -1956h-348z" />
<glyph unicode="}" horiz-adv-x="1021" d="M-68 -410l48 267h139q62 0 92.5 25t40.5 87l51 295q24 132 85.5 207t201.5 102v2q-184 60 -184 224q0 56 10 102l49 268q2 10 2 39q0 72 -94 72h-140l48 266h163q216 0 315 -73.5t99 -221.5q0 -59 -10 -110l-53 -273q-4 -28 -4 -47q0 -48 26.5 -67t89.5 -19h105l-60 -336 h-104q-76 0 -109.5 -33.5t-52.5 -132.5l-47 -266q-40 -208 -149 -292.5t-345 -84.5h-213z" />
<glyph unicode="~" horiz-adv-x="1173" d="M90 369q0 193 79 306t237 113q59 0 116 -20t94.5 -44.5t82.5 -44.5t83 -20q73 0 86 101h234q3 -197 -73.5 -308.5t-242.5 -111.5q-56 0 -113 21t-95 45.5t-82.5 45.5t-79.5 21q-40 0 -62.5 -28t-27.5 -76h-236z" />
<glyph unicode="&#xa1;" horiz-adv-x="561" d="M-53 -311l53 297l217 673h193l-27 -673l-55 -297h-381zM162 813l53 309h363l-56 -309h-360z" />
<glyph unicode="&#xa2;" horiz-adv-x="1280" d="M76 524q0 139 50.5 262.5t143 216.5t232 147t307.5 54q24 0 70 -4l73 174h172l-84 -211q131 -49 234 -149l-207 -213q-71 67 -158 96l-266 -629q28 -4 47 -4q150 0 299 125l195 -217q-212 -199 -520 -199q-58 0 -107 9l-106 -254h-164l121 290q-157 63 -244.5 197.5 t-87.5 308.5zM455 530q0 -153 94 -225l244 608q-95 -3 -173 -55.5t-121.5 -139t-43.5 -188.5z" />
<glyph unicode="&#xa3;" horiz-adv-x="1316" d="M-35 186q0 90 68.5 152.5t173.5 62.5q94 0 219 -59q0 5 1 17t1 18q0 58 -25 135h-282l33 188h159q-34 87 -34 170q0 146 120 240t334 94q151 0 258.5 -64.5t161.5 -164.5l-262 -117q-22 40 -62 66t-81 26q-50 0 -81.5 -27t-31.5 -73q0 -53 43 -152h270l-35 -184h-165 q8 -33 8 -78q0 -116 -62 -213q52 -12 113 -12q70 0 101.5 46.5t19.5 117.5h297q29 -184 -62.5 -293t-273.5 -109q-177 0 -346 101q-159 -101 -340 -101q-114 0 -176 58.5t-62 154.5zM121 186q0 -37 23.5 -56t64.5 -19q43 0 85 23t73 63q-97 65 -156 65q-39 0 -64.5 -21.5 t-25.5 -54.5z" />
<glyph unicode="&#xa4;" horiz-adv-x="1411" d="M53 119l144 131q-66 126 -66 268q0 229 139 404l-112 139l151 121l103 -127q180 121 405 121q173 0 313 -111l136 121l129 -142l-142 -126q70 -121 70 -273q0 -232 -141 -409l108 -132l-151 -120l-101 122q-172 -118 -399 -118q-183 0 -317 112l-140 -123zM496 543 q0 -88 51 -142.5t137 -54.5q110 0 192 81.5t82 193.5q0 88 -50.5 142t-137.5 54q-108 0 -191 -82t-83 -192z" />
<glyph unicode="&#xa5;" horiz-adv-x="1261" d="M82 156l31 176h284l15 88h-283l29 176h286l-321 584h428l123 -267h4l221 267h467l-528 -584h280l-31 -176h-282l-14 -88h282l-33 -176h-282l-27 -156h-393l27 156h-283z" />
<glyph unicode="&#xa6;" horiz-adv-x="673" d="M0 -410l139 793h348l-139 -793h-348zM203 743l141 803h350l-143 -803h-348z" />
<glyph unicode="&#xa7;" horiz-adv-x="1128" d="M6 -139l207 186q52 -32 116.5 -51t112.5 -19q61 0 96 19.5t35 50.5q0 24 -27.5 42.5t-72 32t-98 28t-106.5 36.5t-97.5 51t-72 77t-27.5 110q0 152 176 252q-88 78 -88 207q0 140 132 230.5t372 90.5q110 0 228 -39t200 -102l-207 -189q-53 33 -117 51.5t-113 18.5 q-61 0 -97 -18t-36 -49q0 -24 28 -42.5t72 -32t98 -28.5t108 -36.5t98 -51t72 -78t28 -110.5q0 -83 -51 -146.5t-125 -105.5q88 -78 88 -207q0 -138 -132 -229t-372 -91q-110 0 -228 39.5t-200 102.5zM397 487q0 -18 10.5 -33.5t25 -26.5t42 -22.5t49 -18t60 -18.5t61.5 -20 q55 40 55 86q0 15 -6.5 28.5t-21.5 24.5t-29.5 19t-41 17.5t-45.5 15.5t-53 16t-54 16q-52 -33 -52 -84z" />
<glyph unicode="&#xa8;" horiz-adv-x="1183" d="M356 1264l47 272h285l-47 -272h-285zM834 1264l47 272h278l-47 -272h-278z" />
<glyph unicode="&#xa9;" horiz-adv-x="1644" d="M94 586q0 151 58.5 288.5t158 237t237 158.5t288.5 59t288.5 -59t237 -158.5t158.5 -237t59 -288.5t-59 -288.5t-158.5 -237t-237 -158t-288.5 -58.5q-202 0 -372.5 99.5t-270 270t-99.5 372.5zM219 586q0 -167 83 -309.5t225.5 -225t310.5 -82.5q125 0 239.5 49 t197.5 131.5t132 197t49 239.5q0 168 -83 311t-225.5 226t-309.5 83q-168 0 -310.5 -83t-225.5 -226t-83 -311zM428 584q0 168 117 287.5t305 119.5q190 0 328 -129l-146 -164q-85 74 -166 74q-71 0 -119.5 -52.5t-48.5 -135.5q0 -85 46 -134t120 -49q93 0 168 72l154 -156 q-62 -62 -151.5 -99.5t-186.5 -37.5q-192 0 -306 115t-114 289z" />
<glyph unicode="&#xaa;" horiz-adv-x="811" d="M106 864q0 51 19.5 93.5t54.5 72t80 51.5t101.5 35.5t112 20.5t118.5 10l8 41q7 38 -11.5 53.5t-66.5 15.5q-101 0 -254 -69l-65 170q85 41 177.5 66.5t166.5 25.5q173 0 240 -73t44 -197l-53 -283q-6 -25 5.5 -35t41.5 -10l-28 -168q-107 0 -158.5 21t-73.5 73 q-103 -108 -243 -108q-95 0 -155.5 54t-60.5 140zM348 901q0 -25 18 -41t50 -16q79 0 131 49l22 123q-99 -3 -160 -32.5t-61 -82.5z" />
<glyph unicode="&#xab;" horiz-adv-x="1368" d="M63 567l472 557l225 -182l-346 -391l235 -383l-250 -168zM649 567l471 557l226 -182l-347 -391l236 -383l-250 -168z" />
<glyph unicode="&#xac;" horiz-adv-x="1355" d="M158 885l51 295h1165l-114 -660h-386l66 365h-782z" />
<glyph unicode="&#xad;" horiz-adv-x="768" d="M47 406l55 317h637l-55 -317h-637z" />
<glyph unicode="&#xae;" horiz-adv-x="1644" d="M94 586q0 151 58.5 288.5t158 237t237 158.5t288.5 59t288.5 -59t237 -158.5t158.5 -237t59 -288.5t-59 -288.5t-158.5 -237t-237 -158t-288.5 -58.5q-202 0 -372.5 99.5t-270 270t-99.5 372.5zM219 586q0 -167 83 -309.5t225.5 -225t310.5 -82.5q125 0 239.5 49 t197.5 131.5t132 197t49 239.5q0 168 -83 311t-225.5 226t-309.5 83q-168 0 -310.5 -83t-225.5 -226t-83 -311zM504 209v770h416q78 0 139.5 -23t98 -61t55 -83.5t18.5 -94.5q0 -149 -127 -211q7 -10 64 -150t61 -147h-275l-90 264h-90v-264h-270zM774 631h96q47 0 71 23.5 t24 56.5q0 35 -24 60.5t-71 25.5h-96v-166z" />
<glyph unicode="&#xaf;" horiz-adv-x="1163" d="M395 1288l39 221h713l-39 -221h-713z" />
<glyph unicode="&#xb0;" horiz-adv-x="794" d="M141 1114q0 153 105.5 250.5t255.5 97.5t255 -97.5t105 -250.5q0 -157 -103.5 -252.5t-254.5 -95.5q-153 0 -258 95.5t-105 252.5zM358 1114q0 -63 43 -103t103 -40q57 0 99 40t42 103t-42 103t-99 40q-60 0 -103 -40t-43 -103z" />
<glyph unicode="&#xb1;" horiz-adv-x="1230" d="M-27 0l39 211h379l49 278h-379l56 306h379l61 327h342l-59 -327h381l-58 -306h-377l-51 -278h379l-37 -211h-1104z" />
<glyph unicode="&#xb2;" horiz-adv-x="673" d="M172 1024l12 96q9 71 38 128t67.5 92.5t82.5 62.5t87 45t77.5 33t56 32.5t21.5 38.5q0 24 -20.5 40t-54.5 16q-94 0 -191 -74l-106 137q60 52 144 85.5t161 33.5q125 0 198.5 -64.5t73.5 -166.5q0 -53 -21 -95.5t-55.5 -69.5t-76 -49t-84 -38.5t-78 -32t-60.5 -35 t-30 -43.5h317l-24 -172h-535z" />
<glyph unicode="&#xb3;" horiz-adv-x="702" d="M158 1096l92 143q99 -57 182 -57q57 0 92 25t35 61q0 30 -24 42.5t-76 12.5h-119l27 164h106q57 0 86 15t29 52q0 26 -21 44t-55 18q-70 0 -174 -51l-70 151q151 74 287 74q115 0 186.5 -57t71.5 -150q0 -57 -34.5 -104.5t-94.5 -73.5q94 -54 94 -156q0 -114 -95 -176.5 t-237 -62.5q-79 0 -155.5 23t-132.5 63z" />
<glyph unicode="&#xb4;" horiz-adv-x="1097" d="M442 1235l285 387l246 -156l-285 -231h-246z" />
<glyph unicode="&#xb5;" horiz-adv-x="1253" d="M-68 -410l283 1590h395l-137 -785q-26 -135 74 -135q101 0 205 172l131 748h397l-207 -1180h-336l-10 129q-41 -62 -106 -101.5t-136 -39.5q-68 0 -110 28l-82 -426h-361z" />
<glyph unicode="&#xb6;" horiz-adv-x="1572" d="M137 928q0 89 36 176t105.5 162t188 121.5t266.5 46.5h856l-252 -1434h-331l211 1188h-164l-211 -1188h-332l96 545h-24q-93 0 -168.5 22t-126 59t-85 87t-50 103.5t-15.5 111.5z" />
<glyph unicode="&#xb7;" horiz-adv-x="526" d="M57 379l66 362h364l-63 -362h-367z" />
<glyph unicode="&#xb8;" horiz-adv-x="1097" d="M174 -338q256 184 320 367h231q-65 -298 -305 -492z" />
<glyph unicode="&#xb9;" horiz-adv-x="669" d="M188 1024l27 164h160l65 356l-125 -57l-77 158l309 133h162l-105 -590h139l-26 -164h-529z" />
<glyph unicode="&#xba;" horiz-adv-x="860" d="M131 1008q0 196 125 319t328 123q147 0 242.5 -90t95.5 -246q0 -196 -125 -320t-328 -124q-146 0 -242 91.5t-96 246.5zM369 1012q0 -75 30.5 -117.5t89.5 -42.5q86 0 141.5 79t55.5 179q0 73 -32 116.5t-91 43.5q-85 0 -139.5 -78.5t-54.5 -179.5z" />
<glyph unicode="&#xbb;" horiz-adv-x="1370" d="M29 184l352 396l-240 376l250 168l336 -557l-471 -567zM616 184l353 396l-240 376l250 168l336 -557l-471 -567z" />
<glyph unicode="&#xbc;" horiz-adv-x="1699" d="M139 680l27 164h160l65 356l-125 -57l-78 157l310 134h161l-104 -590h139l-26 -164h-529zM156 0l1398 1434h258l-1396 -1434h-260zM999 291l424 461h222l-82 -457h69l-26 -166h-74l-23 -129h-213l23 129h-268zM1200 295h150l39 205z" />
<glyph unicode="&#xbd;" horiz-adv-x="1841" d="M139 680l27 164h160l65 356l-125 -57l-78 157l310 134h161l-104 -590h139l-26 -164h-529zM156 0l1398 1434h258l-1396 -1434h-260zM1145 0l12 96q9 71 38 128t67.5 92.5t82.5 62.5t87 45t77.5 33t56 32.5t21.5 38.5q0 24 -21 40t-55 16q-93 0 -190 -74l-107 137 q60 52 144.5 85.5t161.5 33.5q125 0 198.5 -64.5t73.5 -166.5q0 -61 -28.5 -108.5t-71.5 -74.5t-94.5 -51t-96 -40t-77.5 -39t-38 -50h318l-25 -172h-534z" />
<glyph unicode="&#xbe;" horiz-adv-x="1734" d="M164 752l92 143q99 -57 182 -57q57 0 92 25t35 61q0 30 -24 42.5t-76 12.5h-119l27 164h106q57 0 86 15t29 52q0 26 -21 44t-55 18q-70 0 -174 -51l-70 151q151 74 287 74q115 0 186.5 -57t71.5 -150q0 -57 -34.5 -104.5t-94.5 -73.5q94 -54 94 -156q0 -114 -94.5 -176.5 t-236.5 -62.5q-79 0 -156 23t-133 63zM184 0l1399 1434h258l-1397 -1434h-260zM1034 291l424 461h221l-82 -457h70l-27 -166h-73l-23 -129h-213l23 129h-269zM1235 295h149l39 205z" />
<glyph unicode="&#xbf;" horiz-adv-x="1153" d="M-31 39q0 73 27.5 135t72.5 105t99.5 79.5t111 66.5t105 58t83.5 61.5t44 69.5l12 45h279q4 -59 -6 -108q-10 -59 -40 -110t-69 -86.5t-84 -66.5t-88 -56.5t-78 -50.5t-56.5 -55t-21.5 -63q0 -49 40 -74.5t98 -25.5q155 0 325 141l201 -215q-250 -227 -569 -227 q-71 0 -138.5 13t-131 42.5t-111.5 72t-76.5 107t-28.5 142.5zM510 813l53 309h361l-54 -309h-360z" />
<glyph unicode="&#xc0;" horiz-adv-x="1437" d="M-84 0l737 1434h449l229 -1434h-405l-25 213h-440l-96 -213h-449zM594 506h272l-53 469h-4zM606 1714l293 154l145 -322h-210z" />
<glyph unicode="&#xc1;" horiz-adv-x="1437" d="M-84 0l737 1434h449l229 -1434h-405l-25 213h-440l-96 -213h-449zM594 506h272l-53 469h-4zM737 1546l258 322l283 -154l-293 -168h-248z" />
<glyph unicode="&#xc2;" horiz-adv-x="1437" d="M-84 0l737 1434h449l229 -1434h-405l-25 213h-440l-96 -213h-449zM473 1546l268 301h385l162 -301h-252l-118 140h-5l-170 -140h-270zM594 506h272l-53 469h-4z" />
<glyph unicode="&#xc3;" horiz-adv-x="1437" d="M-84 0l737 1434h449l229 -1434h-405l-25 213h-440l-96 -213h-449zM500 1550q4 157 78.5 238.5t203.5 81.5q59 0 111.5 -26t93.5 -51.5t72 -25.5q79 0 82 78h205q-4 -159 -78.5 -241t-204.5 -82q-58 0 -110 25.5t-94.5 51t-76.5 25.5q-70 0 -77 -74h-205zM594 506h272 l-53 469h-4z" />
<glyph unicode="&#xc4;" horiz-adv-x="1437" d="M-84 0l737 1434h449l229 -1434h-405l-25 213h-440l-96 -213h-449zM498 1561l45 270h286l-49 -270h-282zM594 506h272l-53 469h-4zM1018 1561l47 270h278l-49 -270h-276z" />
<glyph unicode="&#xc5;" horiz-adv-x="1437" d="M-84 0l737 1434q-24 46 -24 108q0 115 85 196t212 81q101 0 165 -65t64 -161q0 -88 -53 -163l229 -1430h-405l-25 213h-440l-96 -213h-449zM594 506h272l-53 469h-4zM760 1544q0 -50 29 -80t81 -30q66 0 111 46.5t45 108.5q0 50 -29.5 80.5t-81.5 30.5q-66 0 -110.5 -47 t-44.5 -109z" />
<glyph unicode="&#xc6;" horiz-adv-x="2123" d="M-90 0l864 1434h1413l-59 -340h-815l16 -213h682l-53 -308h-606l16 -233h635l-59 -340h-955l-12 213h-477l-119 -213h-471zM674 522h289l-25 465h-4z" />
<glyph unicode="&#xc7;" horiz-adv-x="1419" d="M86 639q0 166 61.5 316.5t169.5 261.5t264 177t334 66q169 0 307 -57t238 -160l-231 -235q-134 120 -311 120q-113 0 -210.5 -62.5t-155.5 -172t-58 -238.5q0 -166 84.5 -258t220.5 -92q174 0 329 144l209 -259q-215 -197 -510 -215q-74 -259 -290 -438l-246 125 q229 166 303 330q-230 46 -369 214t-139 433z" />
<glyph unicode="&#xc8;" horiz-adv-x="1269" d="M18 0l254 1434h1063l-61 -340h-660l-41 -220h584l-53 -294h-582l-43 -240h670l-62 -340h-1069zM498 1714l293 154l145 -322h-211z" />
<glyph unicode="&#xc9;" horiz-adv-x="1269" d="M18 0l254 1434h1063l-61 -340h-660l-41 -220h584l-53 -294h-582l-43 -240h670l-62 -340h-1069zM659 1546l259 322l282 -154l-293 -168h-248z" />
<glyph unicode="&#xca;" horiz-adv-x="1269" d="M18 0l254 1434h1063l-61 -340h-660l-41 -220h584l-53 -294h-582l-43 -240h670l-62 -340h-1069zM418 1546l268 301h385l162 -301h-252l-119 140h-4l-170 -140h-270z" />
<glyph unicode="&#xcb;" horiz-adv-x="1269" d="M18 0l254 1434h1063l-61 -340h-660l-41 -220h584l-53 -294h-582l-43 -240h670l-62 -340h-1069zM430 1561l45 270h287l-49 -270h-283zM950 1561l47 270h279l-49 -270h-277z" />
<glyph unicode="&#xcc;" horiz-adv-x="626" d="M18 0l254 1434h402l-252 -1434h-404zM197 1714l292 154l146 -322h-211z" />
<glyph unicode="&#xcd;" horiz-adv-x="626" d="M18 0l254 1434h402l-252 -1434h-404zM338 1546l258 322l283 -154l-293 -168h-248z" />
<glyph unicode="&#xce;" horiz-adv-x="626" d="M18 0l254 1434h402l-252 -1434h-404zM66 1546l268 301h385l162 -301h-252l-119 140h-4l-170 -140h-270z" />
<glyph unicode="&#xcf;" horiz-adv-x="626" d="M18 0l254 1434h402l-252 -1434h-404zM96 1561l45 270h287l-49 -270h-283zM616 1561l48 270h278l-49 -270h-277z" />
<glyph unicode="&#xd0;" horiz-adv-x="1570" d="M49 623l35 200h168l108 611h490q324 0 508 -157t184 -464q0 -177 -57 -323.5t-169.5 -257t-291.5 -171.5t-410 -61h-508l111 623h-168zM563 313h139q131 0 230.5 69t150 180t50.5 245q0 313 -287 313h-139l-54 -295h242l-35 -204h-244z" />
<glyph unicode="&#xd1;" horiz-adv-x="1486" d="M18 0l254 1434h324l420 -824l143 824h377l-254 -1434h-332l-411 825l-142 -825h-379zM518 1550q4 157 79 238.5t204 81.5q46 0 89.5 -16t70.5 -35.5t59 -35.5t57 -16q79 0 82 78h205q-4 -159 -78.5 -241t-204.5 -82q-46 0 -89 16t-70.5 35t-60.5 35t-60 16q-35 0 -55 -20 t-23 -54h-205z" />
<glyph unicode="&#xd2;" d="M96 643q0 128 35.5 248.5t106 223.5t169.5 180t233.5 121t289.5 44q190 0 342.5 -78t244 -232t91.5 -359q0 -128 -35 -248.5t-106 -223.5t-169.5 -180.5t-233.5 -121.5t-290 -44q-112 0 -214 29t-186.5 86t-146.5 136.5t-96.5 187t-34.5 231.5zM506 645q0 -166 76 -254 t215 -88q112 0 205 68t144.5 179t51.5 238q0 165 -76 253.5t-213 88.5q-113 0 -206.5 -68t-145 -179t-51.5 -238zM637 1714l293 154l145 -322h-211z" />
<glyph unicode="&#xd3;" d="M96 643q0 128 35.5 248.5t106 223.5t169.5 180t233.5 121t289.5 44q190 0 342.5 -78t244 -232t91.5 -359q0 -128 -35 -248.5t-106 -223.5t-169.5 -180.5t-233.5 -121.5t-290 -44q-112 0 -214 29t-186.5 86t-146.5 136.5t-96.5 187t-34.5 231.5zM506 645q0 -166 76 -254 t215 -88q112 0 205 68t144.5 179t51.5 238q0 165 -76 253.5t-213 88.5q-113 0 -206.5 -68t-145 -179t-51.5 -238zM784 1546l258 322l283 -154l-293 -168h-248z" />
<glyph unicode="&#xd4;" d="M96 643q0 128 35.5 248.5t106 223.5t169.5 180t233.5 121t289.5 44q190 0 342.5 -78t244 -232t91.5 -359q0 -128 -35 -248.5t-106 -223.5t-169.5 -180.5t-233.5 -121.5t-290 -44q-112 0 -214 29t-186.5 86t-146.5 136.5t-96.5 187t-34.5 231.5zM506 645q0 -166 76 -254 t215 -88q112 0 205 68t144.5 179t51.5 238q0 165 -76 253.5t-213 88.5q-113 0 -206.5 -68t-145 -179t-51.5 -238zM532 1546l269 301h385l162 -301h-252l-119 140h-4l-170 -140h-271z" />
<glyph unicode="&#xd5;" d="M96 643q0 128 35.5 248.5t106 223.5t169.5 180t233.5 121t289.5 44q190 0 342.5 -78t244 -232t91.5 -359q0 -128 -35 -248.5t-106 -223.5t-169.5 -180.5t-233.5 -121.5t-290 -44q-112 0 -214 29t-186.5 86t-146.5 136.5t-96.5 187t-34.5 231.5zM506 645q0 -166 76 -254 t215 -88q112 0 205 68t144.5 179t51.5 238q0 165 -76 253.5t-213 88.5q-113 0 -206.5 -68t-145 -179t-51.5 -238zM563 1550q4 157 79 238.5t204 81.5q46 0 89.5 -16t70.5 -35.5t59 -35.5t57 -16q79 0 82 78h205q-4 -159 -78.5 -241t-204.5 -82q-46 0 -89 16t-70.5 35 t-60.5 35t-60 16q-35 0 -55 -20t-23 -54h-205z" />
<glyph unicode="&#xd6;" d="M96 643q0 128 35.5 248.5t106 223.5t169.5 180t233.5 121t289.5 44q190 0 342.5 -78t244 -232t91.5 -359q0 -128 -35 -248.5t-106 -223.5t-169.5 -180.5t-233.5 -121.5t-290 -44q-112 0 -214 29t-186.5 86t-146.5 136.5t-96.5 187t-34.5 231.5zM506 645q0 -166 76 -254 t215 -88q112 0 205 68t144.5 179t51.5 238q0 165 -76 253.5t-213 88.5q-113 0 -206.5 -68t-145 -179t-51.5 -238zM567 1561l45 270h287l-49 -270h-283zM1087 1561l48 270h278l-49 -270h-277z" />
<glyph unicode="&#xd7;" horiz-adv-x="1183" d="M59 295l330 285l-221 278l244 207l221 -285l321 289l201 -238l-324 -282l220 -275l-244 -204l-217 278l-326 -289z" />
<glyph unicode="&#xd8;" d="M55 41l176 178q-135 171 -135 424q0 128 35.5 248.5t106 223.5t169.5 180t233.5 121t289.5 44q228 0 405 -119l170 177l135 -125l-172 -174q140 -173 140 -428q0 -128 -35 -248.5t-106 -223.5t-169.5 -180.5t-233.5 -121.5t-290 -44q-241 0 -416 125l-174 -178zM506 645 q0 -83 18 -145l566 573q-72 57 -181 57q-113 0 -206.5 -68t-145 -179t-51.5 -238zM606 367q70 -64 191 -64q112 0 205 68t144.5 179t51.5 238q0 85 -22 156z" />
<glyph unicode="&#xd9;" horiz-adv-x="1460" d="M106 440q0 85 19 193l143 801h404l-152 -842q-12 -56 -12 -111q0 -83 49.5 -128.5t136.5 -45.5q214 0 267 289l147 838h401l-153 -879q-102 -582 -721 -582q-240 0 -384.5 125t-144.5 342zM604 1714l293 154l145 -322h-211z" />
<glyph unicode="&#xda;" horiz-adv-x="1460" d="M106 440q0 85 19 193l143 801h404l-152 -842q-12 -56 -12 -111q0 -83 49.5 -128.5t136.5 -45.5q214 0 267 289l147 838h401l-153 -879q-102 -582 -721 -582q-240 0 -384.5 125t-144.5 342zM758 1546l258 322l282 -154l-292 -168h-248z" />
<glyph unicode="&#xdb;" horiz-adv-x="1460" d="M106 440q0 85 19 193l143 801h404l-152 -842q-12 -56 -12 -111q0 -83 49.5 -128.5t136.5 -45.5q214 0 267 289l147 838h401l-153 -879q-102 -582 -721 -582q-240 0 -384.5 125t-144.5 342zM483 1546l269 301h385l161 -301h-251l-119 140h-4l-170 -140h-271z" />
<glyph unicode="&#xdc;" horiz-adv-x="1460" d="M106 440q0 85 19 193l143 801h404l-152 -842q-12 -56 -12 -111q0 -83 49.5 -128.5t136.5 -45.5q214 0 267 289l147 838h401l-153 -879q-102 -582 -721 -582q-240 0 -384.5 125t-144.5 342zM510 1561l45 270h287l-49 -270h-283zM1030 1561l47 270h279l-49 -270h-277z" />
<glyph unicode="&#xdd;" horiz-adv-x="1441" d="M160 1434h430l184 -461h4l348 461h476l-672 -863l-101 -571h-405l100 571zM711 1546l258 322l282 -154l-293 -168h-247z" />
<glyph unicode="&#xde;" horiz-adv-x="1382" d="M18 0l254 1434h402l-39 -230h196q250 0 386.5 -108.5t136.5 -313.5q0 -83 -21.5 -158t-71.5 -145t-125.5 -121t-192 -81.5t-261.5 -30.5h-219l-41 -246h-404zM520 547h193q103 0 167 55t64 150q0 76 -45 113.5t-127 37.5h-188z" />
<glyph unicode="&#xdf;" horiz-adv-x="1376" d="M2 0l193 1077q86 490 639 490q230 0 376 -118.5t146 -303.5q0 -133 -78.5 -231.5t-214.5 -141.5v-2q252 -90 252 -336q0 -108 -42 -195.5t-113.5 -142.5t-164 -84.5t-196.5 -29.5q-165 0 -293 47l100 280q67 -24 135 -24q80 0 134.5 52t54.5 142q0 154 -180 154h-70 l57 297h27q90 0 144.5 55t54.5 148q0 75 -41 118t-121 43q-89 0 -146.5 -57t-76.5 -162l-189 -1075h-387z" />
<glyph unicode="&#xe0;" horiz-adv-x="1284" d="M61 426q0 197 69 361t192 259t274 95q193 0 299 -125l39 104h346l-139 -780q-4 -28 -4 -43q0 -49 67 -49l-43 -254q-317 -40 -383 141q-133 -158 -342 -158q-161 0 -268 118t-107 331zM449 465q0 -102 36.5 -151.5t94.5 -49.5q54 0 103 38t87 106l70 401q-74 53 -150 53 q-103 0 -172 -116.5t-69 -280.5zM471 1466l268 156l152 -387h-221z" />
<glyph unicode="&#xe1;" horiz-adv-x="1284" d="M61 426q0 197 69 361t192 259t274 95q193 0 299 -125l39 104h346l-139 -780q-4 -28 -4 -43q0 -49 67 -49l-43 -254q-317 -40 -383 141q-133 -158 -342 -158q-161 0 -268 118t-107 331zM449 465q0 -102 36.5 -151.5t94.5 -49.5q54 0 103 38t87 106l70 401q-74 53 -150 53 q-103 0 -172 -116.5t-69 -280.5zM557 1235l285 387l245 -156l-284 -231h-246z" />
<glyph unicode="&#xe2;" horiz-adv-x="1284" d="M61 426q0 197 69 361t192 259t274 95q193 0 299 -125l39 104h346l-139 -780q-4 -28 -4 -43q0 -49 67 -49l-43 -254q-317 -40 -383 141q-133 -158 -342 -158q-161 0 -268 118t-107 331zM324 1235l292 328h420l178 -328h-270l-131 151h-8l-189 -151h-292zM449 465 q0 -102 36.5 -151.5t94.5 -49.5q54 0 103 38t87 106l70 401q-74 53 -150 53q-103 0 -172 -116.5t-69 -280.5z" />
<glyph unicode="&#xe3;" horiz-adv-x="1284" d="M61 426q0 197 69 361t192 259t274 95q193 0 299 -125l39 104h346l-139 -780q-4 -28 -4 -43q0 -49 67 -49l-43 -254q-317 -40 -383 141q-133 -158 -342 -158q-161 0 -268 118t-107 331zM385 1245q7 161 81 244.5t202 83.5q45 0 87 -16t68 -35.5t58.5 -35.5t60.5 -16 q70 0 76 84h205q-7 -161 -81 -244t-202 -83q-56 0 -105.5 25t-90 50t-74.5 25q-37 0 -56.5 -19t-23.5 -63h-205zM449 465q0 -102 36.5 -151.5t94.5 -49.5q54 0 103 38t87 106l70 401q-74 53 -150 53q-103 0 -172 -116.5t-69 -280.5z" />
<glyph unicode="&#xe4;" horiz-adv-x="1284" d="M61 426q0 197 69 361t192 259t274 95q193 0 299 -125l39 104h346l-139 -780q-4 -28 -4 -43q0 -49 67 -49l-43 -254q-317 -40 -383 141q-133 -158 -342 -158q-161 0 -268 118t-107 331zM399 1264l47 272h285l-47 -272h-285zM449 465q0 -102 36.5 -151.5t94.5 -49.5 q54 0 103 38t87 106l70 401q-74 53 -150 53q-103 0 -172 -116.5t-69 -280.5zM877 1264l47 272h278l-47 -272h-278z" />
<glyph unicode="&#xe5;" horiz-adv-x="1284" d="M61 426q0 197 69 361t192 259t274 95q193 0 299 -125l39 104h346l-139 -780q-4 -28 -4 -43q0 -49 67 -49l-43 -254q-317 -40 -383 141q-133 -158 -342 -158q-161 0 -268 118t-107 331zM449 465q0 -102 36.5 -151.5t94.5 -49.5q54 0 103 38t87 106l70 401q-74 53 -150 53 q-103 0 -172 -116.5t-69 -280.5zM526 1448q0 117 84 197.5t213 80.5q99 0 164.5 -64.5t65.5 -160.5q0 -117 -84.5 -197.5t-212.5 -80.5q-99 0 -164.5 65t-65.5 160zM655 1452q0 -50 30 -80.5t81 -30.5q65 0 111.5 47.5t46.5 108.5q0 50 -30.5 79.5t-82.5 29.5 q-65 0 -110.5 -46.5t-45.5 -107.5z" />
<glyph unicode="&#xe6;" horiz-adv-x="1949" d="M61 426q0 199 69.5 362.5t199.5 260t295 96.5q219 0 422 -162q179 162 442 162q197 0 318.5 -92.5t121.5 -241.5q0 -162 -166 -253t-438 -91h-131v-10q3 -95 48 -136.5t134 -41.5q136 0 287 92l133 -254q-223 -144 -471 -144q-292 0 -414 232q-85 -107 -201 -169.5 t-241 -62.5q-188 0 -298 119.5t-110 333.5zM449 465q0 -102 35.5 -151.5t93.5 -49.5q54 0 105.5 39t86.5 107l8 53l8 45l54 303q-77 51 -150 51q-103 0 -172 -116.5t-69 -280.5zM1219 662h79q269 0 269 129q0 40 -29.5 66t-81.5 26q-74 0 -140 -57t-97 -164z" />
<glyph unicode="&#xe7;" horiz-adv-x="1081" d="M66 489q0 184 86 335t234 236t327 85q125 0 234 -42.5t179 -109.5l-211 -223q-84 74 -192 74q-111 0 -187.5 -99.5t-76.5 -248.5q0 -100 51.5 -158.5t130.5 -58.5q110 0 201 77l184 -237q-155 -124 -369 -142q-74 -262 -290 -440l-246 125q232 169 305 334 q-161 42 -260.5 168t-99.5 325z" />
<glyph unicode="&#xe8;" horiz-adv-x="1212" d="M66 469q0 149 55 277t148.5 214.5t218.5 135.5t264 49q197 0 319.5 -92.5t122.5 -241.5q0 -162 -166.5 -253t-439.5 -91h-133q1 -101 46.5 -144.5t137.5 -43.5q140 0 289 90l131 -252q-227 -144 -469 -144q-234 0 -379 134.5t-145 361.5zM457 1466l268 156l152 -387h-222 zM481 662h80q145 0 207.5 36.5t62.5 92.5q0 40 -29.5 66t-80.5 26q-81 0 -145 -60t-95 -161z" />
<glyph unicode="&#xe9;" horiz-adv-x="1212" d="M66 469q0 149 55 277t148.5 214.5t218.5 135.5t264 49q197 0 319.5 -92.5t122.5 -241.5q0 -162 -166.5 -253t-439.5 -91h-133q1 -101 46.5 -144.5t137.5 -43.5q140 0 289 90l131 -252q-227 -144 -469 -144q-234 0 -379 134.5t-145 361.5zM481 662h80q145 0 207.5 36.5 t62.5 92.5q0 40 -29.5 66t-80.5 26q-81 0 -145 -60t-95 -161zM555 1235l285 387l245 -156l-284 -231h-246z" />
<glyph unicode="&#xea;" horiz-adv-x="1212" d="M66 469q0 149 55 277t148.5 214.5t218.5 135.5t264 49q197 0 319.5 -92.5t122.5 -241.5q0 -162 -166.5 -253t-439.5 -91h-133q1 -101 46.5 -144.5t137.5 -43.5q140 0 289 90l131 -252q-227 -144 -469 -144q-234 0 -379 134.5t-145 361.5zM299 1235l293 328h420l178 -328 h-270l-132 151h-8l-188 -151h-293zM481 662h80q145 0 207.5 36.5t62.5 92.5q0 40 -29.5 66t-80.5 26q-81 0 -145 -60t-95 -161z" />
<glyph unicode="&#xeb;" horiz-adv-x="1212" d="M66 469q0 149 55 277t148.5 214.5t218.5 135.5t264 49q197 0 319.5 -92.5t122.5 -241.5q0 -162 -166.5 -253t-439.5 -91h-133q1 -101 46.5 -144.5t137.5 -43.5q140 0 289 90l131 -252q-227 -144 -469 -144q-234 0 -379 134.5t-145 361.5zM371 1264l47 272h284l-47 -272 h-284zM481 662h80q145 0 207.5 36.5t62.5 92.5q0 40 -29.5 66t-80.5 26q-81 0 -145 -60t-95 -161zM848 1264l47 272h279l-48 -272h-278z" />
<glyph unicode="&#xec;" horiz-adv-x="583" d="M8 0l195 1098h385l-195 -1098h-385zM150 1466l268 156l151 -387h-221z" />
<glyph unicode="&#xed;" horiz-adv-x="583" d="M8 0l195 1098h385l-195 -1098h-385zM242 1235l284 387l246 -156l-285 -231h-245z" />
<glyph unicode="&#xee;" horiz-adv-x="583" d="M-35 1235l293 328h420l178 -328h-270l-131 151h-9l-188 -151h-293zM8 0l195 1098h385l-195 -1098h-385z" />
<glyph unicode="&#xef;" horiz-adv-x="583" d="M8 0l195 1098h385l-195 -1098h-385zM39 1264l47 272h285l-47 -272h-285zM516 1264l47 272h279l-47 -272h-279z" />
<glyph unicode="&#xf0;" horiz-adv-x="1251" d="M45 453q0 152 68 270t185 182t263 64q134 0 252 -72q-35 135 -111 264l-301 -114l-73 172l270 98q-86 109 -209 229h395q40 -42 109 -123l225 90l76 -176l-188 -69q202 -312 202 -635q0 -310 -174.5 -484t-455.5 -174q-251 0 -392 134.5t-141 343.5zM430 449 q0 -98 42.5 -151.5t117.5 -53.5q106 0 175 108t69 299q-88 78 -187 78q-91 0 -154 -78t-63 -202z" />
<glyph unicode="&#xf1;" horiz-adv-x="1247" d="M6 0l199 1120h323l9 -145q160 170 364 170q141 0 220 -78.5t79 -210.5q0 -77 -20 -190l-119 -666h-385l121 688q12 62 12 94q0 78 -76 78q-107 0 -219 -168l-123 -692h-385zM367 1245q7 161 80.5 244.5t201.5 83.5q45 0 87 -16t68.5 -35.5t59 -35.5t60.5 -16q36 0 54 20 t21 64h205q-7 -161 -80.5 -244t-201.5 -83q-44 0 -85.5 15.5t-67.5 34.5t-58 34.5t-60 15.5q-37 0 -56.5 -19t-23.5 -63h-204z" />
<glyph unicode="&#xf2;" horiz-adv-x="1275" d="M63 487q0 292 182 475t472 183q147 0 263 -59.5t183.5 -177.5t67.5 -277q0 -291 -181 -474.5t-472 -183.5q-224 0 -369.5 138.5t-145.5 375.5zM444 1466l269 156l151 -387h-221zM453 477q0 -227 149 -227q66 0 122 57t87 147.5t31 188.5q0 113 -38.5 170t-111.5 57 q-65 0 -121 -57t-87 -147.5t-31 -188.5z" />
<glyph unicode="&#xf3;" horiz-adv-x="1275" d="M63 487q0 292 182 475t472 183q147 0 263 -59.5t183.5 -177.5t67.5 -277q0 -291 -181 -474.5t-472 -183.5q-224 0 -369.5 138.5t-145.5 375.5zM453 477q0 -227 149 -227q66 0 122 57t87 147.5t31 188.5q0 113 -38.5 170t-111.5 57q-65 0 -121 -57t-87 -147.5t-31 -188.5z M526 1235l285 387l246 -156l-285 -231h-246z" />
<glyph unicode="&#xf4;" horiz-adv-x="1275" d="M63 487q0 292 182 475t472 183q147 0 263 -59.5t183.5 -177.5t67.5 -277q0 -291 -181 -474.5t-472 -183.5q-224 0 -369.5 138.5t-145.5 375.5zM287 1235l293 328h419l179 -328h-271l-131 151h-8l-188 -151h-293zM453 477q0 -227 149 -227q66 0 122 57t87 147.5t31 188.5 q0 113 -38.5 170t-111.5 57q-65 0 -121 -57t-87 -147.5t-31 -188.5z" />
<glyph unicode="&#xf5;" horiz-adv-x="1275" d="M63 487q0 292 182 475t472 183q147 0 263 -59.5t183.5 -177.5t67.5 -277q0 -291 -181 -474.5t-472 -183.5q-224 0 -369.5 138.5t-145.5 375.5zM344 1245q7 161 81 244.5t202 83.5q45 0 87 -16t68 -35.5t58.5 -35.5t60.5 -16q70 0 76 84h205q-7 -161 -81 -244t-202 -83 q-56 0 -105.5 25t-90 50t-74.5 25q-37 0 -56.5 -19t-23.5 -63h-205zM453 477q0 -227 149 -227q66 0 122 57t87 147.5t31 188.5q0 113 -38.5 170t-111.5 57q-65 0 -121 -57t-87 -147.5t-31 -188.5z" />
<glyph unicode="&#xf6;" horiz-adv-x="1275" d="M63 487q0 292 182 475t472 183q147 0 263 -59.5t183.5 -177.5t67.5 -277q0 -291 -181 -474.5t-472 -183.5q-224 0 -369.5 138.5t-145.5 375.5zM354 1264l47 272h285l-47 -272h-285zM453 477q0 -227 149 -227q66 0 122 57t87 147.5t31 188.5q0 113 -38.5 170t-111.5 57 q-65 0 -121 -57t-87 -147.5t-31 -188.5zM831 1264l48 272h278l-47 -272h-279z" />
<glyph unicode="&#xf7;" horiz-adv-x="1230" d="M47 410l57 307h1102l-53 -307h-1106zM375 12l45 256h297l-45 -256h-297zM522 858l47 254h297l-47 -254h-297z" />
<glyph unicode="&#xf8;" horiz-adv-x="1275" d="M10 2l154 160q-101 135 -101 325q0 292 182 475t472 183q165 0 297 -80l147 162l129 -117l-153 -160q94 -134 94 -319q0 -291 -181 -474.5t-472 -183.5q-166 0 -291 78l-150 -162zM453 444l350 369q-39 57 -111 57q-65 0 -121 -57t-87 -147.5t-31 -188.5v-33zM496 299 q40 -49 106 -49t122 57t87 147.5t31 188.5v25z" />
<glyph unicode="&#xf9;" horiz-adv-x="1241" d="M53 266q0 78 17 185l118 669h385l-127 -702q-8 -54 -8 -88q0 -78 76 -78q109 0 225 186l119 682h387l-198 -1120h-312l-10 147q-164 -174 -367 -174q-147 0 -226 81.5t-79 211.5zM426 1466l268 156l152 -387h-221z" />
<glyph unicode="&#xfa;" horiz-adv-x="1241" d="M53 266q0 78 17 185l118 669h385l-127 -702q-8 -54 -8 -88q0 -78 76 -78q109 0 225 186l119 682h387l-198 -1120h-312l-10 147q-164 -174 -367 -174q-147 0 -226 81.5t-79 211.5zM571 1235l285 387l246 -156l-285 -231h-246z" />
<glyph unicode="&#xfb;" horiz-adv-x="1241" d="M53 266q0 78 17 185l118 669h385l-127 -702q-8 -54 -8 -88q0 -78 76 -78q109 0 225 186l119 682h387l-198 -1120h-312l-10 147q-164 -174 -367 -174q-147 0 -226 81.5t-79 211.5zM293 1235l293 328h420l178 -328h-271l-131 151h-8l-188 -151h-293z" />
<glyph unicode="&#xfc;" horiz-adv-x="1241" d="M53 266q0 78 17 185l118 669h385l-127 -702q-8 -54 -8 -88q0 -78 76 -78q109 0 225 186l119 682h387l-198 -1120h-312l-10 147q-164 -174 -367 -174q-147 0 -226 81.5t-79 211.5zM354 1264l47 272h285l-47 -272h-285zM831 1264l48 272h278l-47 -272h-279z" />
<glyph unicode="&#xfd;" horiz-adv-x="1171" d="M-137 -358l133 266q76 -39 137 -39q58 0 94.5 23.5t63.5 84.5l22 41l-200 1102h360l88 -653h4l312 653h383l-562 -1089q-74 -141 -134.5 -228.5t-127 -140.5t-135 -72.5t-162.5 -19.5q-75 0 -150 20t-126 52zM522 1235l285 387l246 -156l-285 -231h-246z" />
<glyph unicode="&#xfe;" horiz-adv-x="1269" d="M-68 -410l351 1956h385l-97 -532q130 127 301 127q72 0 134 -27.5t112 -81.5t78.5 -143.5t28.5 -204.5q0 -311 -151 -507.5t-378 -196.5q-171 0 -286 122l-93 -512h-385zM446 315q63 -57 150 -57q70 0 126.5 56.5t87 147.5t30.5 197q0 99 -37 149t-96 50 q-51 0 -100.5 -38.5t-88.5 -104.5z" />
<glyph unicode="&#xff;" horiz-adv-x="1171" d="M-137 -358l133 266q76 -39 137 -39q58 0 94.5 23.5t63.5 84.5l22 41l-200 1102h360l88 -653h4l312 653h383l-562 -1089q-74 -141 -134.5 -228.5t-127 -140.5t-135 -72.5t-162.5 -19.5q-75 0 -150 20t-126 52zM317 1264l48 272h284l-47 -272h-285zM795 1264l47 272h278 l-47 -272h-278z" />
<glyph unicode="&#x152;" horiz-adv-x="2322" d="M96 643q0 128 35 248.5t105 223.5t166.5 180t226.5 121t278 44q126 0 229 -37t169 -106l20 117h1061l-59 -340h-660l-41 -220h584l-56 -294h-581l-43 -240h670l-60 -340h-1067l19 106q-155 -133 -367 -133q-92 0 -182.5 28.5t-171 86t-142 136.5t-97.5 187.5t-36 231.5z M506 645q0 -166 76 -254t215 -88q112 0 205 68t144.5 179t51.5 238q0 165 -76 253.5t-213 88.5q-113 0 -206.5 -68t-145 -179t-51.5 -238z" />
<glyph unicode="&#x153;" horiz-adv-x="1980" d="M63 487q0 292 182 475t472 183q235 0 354 -166q177 166 451 166q197 0 318.5 -92.5t121.5 -241.5q0 -162 -166.5 -253t-439.5 -91h-129q-2 -2 -2 -10q3 -95 48 -136.5t134 -41.5q138 0 289 92l131 -254q-223 -144 -469 -144q-237 0 -363 164q-158 -164 -417 -164 q-224 0 -369.5 138.5t-145.5 375.5zM453 477q0 -227 149 -227q66 0 122 57t87 147.5t31 188.5q0 113 -38.5 170t-111.5 57q-65 0 -121 -57t-87 -147.5t-31 -188.5zM1249 662h80q146 0 208 36t62 93q0 40 -29.5 66t-80.5 26q-74 0 -141.5 -57t-98.5 -164z" />
<glyph unicode="&#x178;" horiz-adv-x="1441" d="M160 1434h430l184 -461h4l348 461h476l-672 -863l-101 -571h-405l100 571zM479 1561l45 270h287l-49 -270h-283zM999 1561l48 270h278l-49 -270h-277z" />
<glyph unicode="&#x2c6;" horiz-adv-x="1210" d="M328 1235l293 328h419l179 -328h-271l-131 151h-8l-188 -151h-293z" />
<glyph unicode="&#x2dc;" horiz-adv-x="1185" d="M352 1245q7 161 81 244.5t202 83.5q45 0 87 -16t68 -35.5t58.5 -35.5t60.5 -16q70 0 76 84h205q-7 -161 -81 -244t-202 -83q-56 0 -105.5 25t-90 50t-74.5 25q-37 0 -56.5 -19t-23.5 -63h-205z" />
<glyph unicode="&#x2000;" horiz-adv-x="935" />
<glyph unicode="&#x2001;" horiz-adv-x="1870" />
<glyph unicode="&#x2002;" horiz-adv-x="935" />
<glyph unicode="&#x2003;" horiz-adv-x="1870" />
<glyph unicode="&#x2004;" horiz-adv-x="623" />
<glyph unicode="&#x2005;" horiz-adv-x="467" />
<glyph unicode="&#x2006;" horiz-adv-x="311" />
<glyph unicode="&#x2007;" horiz-adv-x="311" />
<glyph unicode="&#x2008;" horiz-adv-x="233" />
<glyph unicode="&#x2009;" horiz-adv-x="374" />
<glyph unicode="&#x200a;" horiz-adv-x="103" />
<glyph unicode="&#x2010;" horiz-adv-x="768" d="M47 406l55 317h637l-55 -317h-637z" />
<glyph unicode="&#x2011;" horiz-adv-x="768" d="M47 406l55 317h637l-55 -317h-637z" />
<glyph unicode="&#x2012;" horiz-adv-x="768" d="M47 406l55 317h637l-55 -317h-637z" />
<glyph unicode="&#x2013;" horiz-adv-x="1290" d="M43 406l57 317h1170l-58 -317h-1169z" />
<glyph unicode="&#x2014;" horiz-adv-x="1794" d="M55 406l58 317h1638l-55 -317h-1641z" />
<glyph unicode="&#x2018;" horiz-adv-x="540" d="M119 702l51 269q32 185 124.5 289t262.5 147l43 -137q-86 -24 -138.5 -77.5t-66.5 -123.5h160l-66 -367h-370z" />
<glyph unicode="&#x2019;" horiz-adv-x="540" d="M139 868q86 24 138.5 77.5t66.5 123.5h-160l66 367h371l-52 -269q-32 -185 -124.5 -289t-262.5 -147z" />
<glyph unicode="&#x201a;" horiz-adv-x="540" d="M-49 -201q86 24 138.5 77.5t66.5 123.5h-160l65 367h371l-51 -269q-32 -185 -124.5 -289t-262.5 -147z" />
<glyph unicode="&#x201c;" horiz-adv-x="1077" d="M119 702l51 269q32 185 124.5 289t262.5 147l43 -137q-86 -24 -138.5 -77.5t-66.5 -123.5h160l-66 -367h-370zM659 702l52 269q32 185 124.5 289t262.5 147l43 -137q-86 -24 -138.5 -77.5t-66.5 -123.5h160l-66 -367h-371z" />
<glyph unicode="&#x201d;" horiz-adv-x="1081" d="M139 868q86 24 138.5 77.5t66.5 123.5h-160l66 367h371l-52 -269q-32 -185 -124.5 -289t-262.5 -147zM682 868q86 24 138.5 77.5t66.5 123.5h-160l66 367h370l-51 -269q-32 -185 -124.5 -289t-262.5 -147z" />
<glyph unicode="&#x201e;" horiz-adv-x="1079" d="M-49 -201q86 24 138.5 77.5t66.5 123.5h-160l65 367h371l-51 -269q-32 -185 -124.5 -289t-262.5 -147zM492 -201q86 24 138 77.5t66 123.5h-159l65 367h371l-51 -269q-32 -185 -124.5 -289t-262.5 -147z" />
<glyph unicode="&#x2022;" horiz-adv-x="1124" d="M221 520q0 163 117 275t270 112q130 0 214.5 -85.5t84.5 -213.5q0 -162 -117 -274.5t-270 -112.5q-131 0 -215 85t-84 214z" />
<glyph unicode="&#x2026;" horiz-adv-x="1751" d="M-4 0l65 367h371l-67 -367h-369zM604 0l66 367h370l-67 -367h-369zM1212 0l66 367h371l-68 -367h-369z" />
<glyph unicode="&#x202f;" horiz-adv-x="374" />
<glyph unicode="&#x2039;" horiz-adv-x="782" d="M63 567l472 557l225 -182l-346 -391l235 -383l-250 -168z" />
<glyph unicode="&#x203a;" horiz-adv-x="782" d="M29 184l352 396l-240 376l250 168l336 -557l-471 -567z" />
<glyph unicode="&#x205f;" horiz-adv-x="467" />
<glyph unicode="&#x20ac;" horiz-adv-x="1284" d="M14 365l33 176h148q0 32 8 98h-140l33 178h156q77 178 240 282.5t382 104.5q136 0 249 -52t182 -146l-230 -199q-33 41 -84.5 67.5t-111.5 26.5q-152 0 -238 -106h240l-29 -156h-283q-10 -41 -10 -98h277l-27 -154h-219q56 -111 196 -111q116 0 203 84l189 -217 q-82 -77 -193.5 -123.5t-241.5 -46.5q-197 0 -340.5 107.5t-189.5 284.5h-199z" />
<glyph unicode="&#x2122;" horiz-adv-x="1783" d="M186 1245l35 189h723l-33 -189h-241l-99 -569h-239l98 569h-244zM901 676l135 758h207l148 -236l225 236h242l-136 -758h-237l74 411l-207 -210l-138 215l-73 -416h-240z" />
<glyph unicode="&#xe000;" horiz-adv-x="1116" d="M0 0v1116h1116v-1116h-1116z" />
</font>
</defs>
</svg>
